<?xml version="1.0" encoding="utf-8"?>
<svg id="svg297585" viewBox="252.376 338.218 525.544 91.564" height="768px" width="1024px" version="1.1" xmlns="http://www.w3.org/2000/svg" xmlns:xlink="http://www.w3.org/1999/xlink">
  <g id="logo-group">
    <image id="container" x="272" y="144" width="480" height="480" style="display: none;" transform="translate(0 0)" xlink:href=""/>
    <g id="logo-center" transform="translate(208.92613636363632 0)">
      <image id="icon_container" x="0" y="0" style="display: none;" xlink:href=""/>
      <g id="slogan" style="font-style:normal;font-weight:normal;font-size:32px;line-height:1;font-family:'Brandmark Sans 30 Color';font-variant-ligatures:none;text-align:center;text-anchor:middle" transform="translate(0 0)"/>
      <g id="title" style="font-style:normal;font-weight:normal;font-size:72px;line-height:1;font-family:'Brandmark Sans 30 Color';font-variant-ligatures:normal;text-align:center;text-anchor:middle" transform="translate(0 0)">
        <g id="path297594" aria-label="S" transform="translate(0 324.2309090909091) translate(50 22.88545454545455) scale(1.5909090909090908) translate(-352.91994 46.008)">
          <path class="c1" d="M91.75734,108.99869v1.1521c0,2.5202,0.36035,2.80823,2.73633,2.80823h11.01709 c2.37598,0,2.73633-0.28802,2.73633-2.80823v-2.01617c0-0.72009,0-1.22412-0.93604-1.58417l-18.36182-6.62457 c-4.24854-1.58411-6.55273-4.96841-6.55273-10.15286V88.4769c0-7.84869,4.6084-12.16907,12.09717-12.16907h11.01709 c7.92041,0,12.09717,4.68042,12.09717,12.16907v2.37622h-9.36084V88.4769c0-2.37622-0.50439-2.80823-2.73633-2.80823H94.49367 c-2.52002,0-2.73633,0.43201-2.73633,2.80823v1.29611c0,0.64804,0,1.22409,0.72021,1.51212l18.57764,6.69659 c4.17627,1.51215,6.55273,5.04044,6.55273,10.15289v2.01617c0,7.48865-4.17676,12.16904-12.09717,12.16904H94.49367 c-7.48877,0-12.09717-4.32037-12.09717-12.16904v-1.1521C82.3965,108.99868,91.75734,108.99868,91.75734,108.99869z" transform="translate(270.52344 -122.31583)" stroke-width="0" stroke-linejoin="miter" stroke-miterlimit="2" fill="#ffffff" stroke="#ffffff"/>
        </g>
        <g id="path297596" aria-label="e" transform="translate(0 324.2309090909091) translate(111.07598636363642 35.94363636363637) scale(1.5909090909090908) translate(-391.31056 37.8)">
          <path class="c1" d="M80.92043,103.45419c0-12.60107,6.84058-18.93762,19.08179-18.93762 c12.24097,0,19.08154,6.33655,19.08154,18.93762v3.2403H89.92128c0.93604,4.32037,3.96033,6.76855,7.92065,6.76855h4.32043 c2.95215,0,5.32837-1.3681,6.76855-3.81635h9.43286c-1.51221,9.00079-8.35278,13.10516-18.36157,13.10516 C87.2571,122.75185,80.92043,115.91128,80.92043,103.45419z M109.65089,98.77377c-1.224-3.38428-3.96021-5.32843-7.48853-5.32843 h-4.32043c-3.52832,0-6.26453,1.94415-7.48865,5.32843H109.65089z" transform="translate(310.39013 -122.31657)" stroke-width="0" stroke-linejoin="miter" stroke-miterlimit="2" fill="#ffffff" stroke="#ffffff"/>
        </g>
        <g id="path297598" aria-label="c" transform="translate(0 324.2309090909091) translate(176.8501340909092 35.94363636363637) scale(1.5909090909090908) translate(-432.65431 37.8)">
          <path class="c1" d="M81.28029,103.45419c0-12.60107,6.84058-18.93762,19.08167-18.93762 c10.00891,0,16.77747,4.32037,18.28955,12.38507h-9.57678c-1.44012-2.23224-3.74432-3.4563-6.55261-3.4563H98.2018 c-4.89648,0-8.28076,3.74432-8.28076,10.00885s3.38428,10.00885,8.28076,10.00885h4.32031 c2.95227,0,5.32849-1.3681,6.76868-3.81635h9.43274c-1.51208,9.00079-8.35266,13.10516-18.36157,13.10516 C87.61684,122.75185,81.28029,115.91128,81.28029,103.45419z" transform="translate(351.37402 -122.31657)" stroke-width="0" stroke-linejoin="miter" stroke-miterlimit="2" fill="#ffffff" stroke="#ffffff"/>
        </g>
        <g id="path297600" aria-label="r" transform="translate(0 324.2309090909091) translate(241.5056818181819 35.94363636363637) scale(1.5909090909090908) translate(-473.29494 37.8)">
          <path class="c1" d="M99.92921,84.87655v2.80829c2.08813-2.16022,5.1123-3.16827,9.50464-3.16827v9.2168h-3.88818 c-4.53638,0-5.61646,3.16827-5.61646,8.2807v20.30573h-9.36084V84.87655H99.92921z" transform="translate(382.72657 -122.31657)" stroke-width="0" stroke-linejoin="miter" stroke-miterlimit="2" fill="#ffffff" stroke="#ffffff"/>
        </g>
        <g id="path297602" aria-label="e" transform="translate(0 324.2309090909091) translate(270.81320227272744 35.94363636363637) scale(1.5909090909090908) translate(-491.71681 37.8)">
          <path class="c1" d="M80.92043,103.45419c0-12.60107,6.84058-18.93762,19.08179-18.93762 c12.24097,0,19.08154,6.33655,19.08154,18.93762v3.2403H89.92128c0.93604,4.32037,3.96033,6.76855,7.92065,6.76855h4.32043 c2.95215,0,5.32837-1.3681,6.76855-3.81635h9.43286c-1.51221,9.00079-8.35278,13.10516-18.36157,13.10516 C87.2571,122.75185,80.92043,115.91128,80.92043,103.45419z M109.65089,98.77377c-1.224-3.38428-3.96021-5.32843-7.48853-5.32843 h-4.32043c-3.52832,0-6.26453,1.94415-7.48865,5.32843H109.65089z" transform="translate(410.79638 -122.31657)" stroke-width="0" stroke-linejoin="miter" stroke-miterlimit="2" fill="#ffffff" stroke="#ffffff"/>
        </g>
        <g id="path297604" aria-label="t" transform="translate(0 324.2309090909091) translate(336.5873500000002 22.7709090909091) scale(1.5909090909090908) translate(-533.06056 46.08)">
          <path class="c1" d="M107.92189,122.31979h-4.32031c-6.98438,0-11.521-4.53638-11.521-11.521v-34.563h9.36084v8.64075h6.48047 v9.36084h-6.48047v16.5614c0,2.16022,0,2.16022,2.16016,2.16022h4.32031V122.31979z" transform="translate(440.97998 -122.31579)" stroke-width="0" stroke-linejoin="miter" stroke-miterlimit="2" fill="#ffffff" stroke="#ffffff"/>
        </g>
        <g id="path297606" aria-label="^P" transform="translate(0 324.2309090909091) translate(366.7897727272728 22.7709090909091) scale(1.5909090909090908) translate(-552.04494 46.08)">
          <path class="c3" d="M83.83644,76.23581h18.21753c8.56885,0,14.11328,5.04041,14.11328,14.04114 c0,8.56885-5.25659,14.04126-14.11328,14.04126H89.23683v18.00159h-5.40039V98.91782h18.21753 c6.19263,0,8.71289-2.59229,8.71289-8.64087c0-6.1925-2.66431-8.64062-8.71289-8.64062H83.83644V76.23581z" transform="translate(468.2085 -122.31581)" stroke-width="0" stroke-linejoin="miter" stroke-miterlimit="2" fill="#595758" stroke="#595758"/>
        </g>
        <g id="path297608" aria-label="^i" transform="translate(0 324.2309090909091) translate(423.16761363636374 22.7709090909091) scale(1.5909090909090908) translate(-587.48244 46.08)">
          <rect x="97.30055" y="76.23586" class="c1" width="5.40063" height="5.40039" transform="translate(490.181888 -122.315863)" stroke-width="0" stroke-linejoin="miter" stroke-miterlimit="2" fill="#ffffff" stroke="#ffffff"/>
          <rect x="97.30055" y="84.8766" class="c3" width="5.40063" height="37.44324" transform="translate(490.181888 -122.315863)" stroke-width="0" stroke-linejoin="miter" stroke-miterlimit="2" fill="#595758" stroke="#595758"/>
        </g>
        <g id="path297610" aria-label="^x" transform="translate(0 324.2309090909091) translate(435.6691681818183 36.51636363636364) scale(1.5909090909090908) translate(-595.34056 37.44)">
          <path class="c3" d="M90.06544,84.8766l9.93652,13.60913l9.93701-13.60913h6.62451l-13.10498,17.92957l14.25732,19.51367h-6.625 l-11.08887-15.19336L88.9131,122.31984h-6.62451l14.25732-19.51367L83.44044,84.8766H90.06544z" transform="translate(513.05197 -122.3166)" stroke-width="0" stroke-linejoin="miter" stroke-miterlimit="2" fill="#595758" stroke="#595758"/>
        </g>
        <g id="path297612" aria-label="^e" transform="translate(0 324.2309090909091) translate(488.94176136363654 35.94363636363637) scale(1.5909090909090908) translate(-628.82619 37.8)">
          <path class="c3" d="M83.15236,103.52614c0-12.45703,6.48059-19.00952,16.84949-19.00952s16.84949,6.55249,16.84949,19.00952 v1.44019H88.69679c0.28809,9.07275,3.38428,12.16907,9.36084,12.16907h4.53638c3.74438,0,6.55261-2.37622,8.28076-7.05664h5.40039 c-2.01611,7.99268-7.92065,12.60107-16.27332,12.60107C89.20094,122.67982,83.15236,115.47926,83.15236,103.52614z M111.16286,99.9258c-0.72021-7.4165-3.74438-10.00879-9.2168-10.00879h-3.88843c-5.47241,0-8.4967,2.59229-9.2168,10.00879 H111.16286z" transform="translate(545.67383 -122.31662)" stroke-width="0" stroke-linejoin="miter" stroke-miterlimit="2" fill="#595758" stroke="#595758"/>
        </g>
        <g id="path297614" aria-label="^l" transform="translate(0 324.2309090909091) translate(547.5568181818182 22.7709090909091) scale(1.5909090909090908) translate(-665.66994 46.08)">
          <path class="c3" d="M102.70119,76.23586v46.08398H97.3008V76.23586H102.70119z" transform="translate(568.36914 -122.31586)" stroke-width="0" stroke-linejoin="miter" stroke-miterlimit="2" fill="#595758" stroke="#595758"/>
        </g>
      </g>
      <image id="icon" x="0" y="0" style="display: none;" xlink:href=""/>
    </g>
  </g>
</svg>